%TF.GenerationSoftware,KiCad,Pcbnew,8.0.1*%
%TF.CreationDate,2024-04-28T14:26:27+12:00*%
%TF.ProjectId,v1,76312e6b-6963-4616-945f-706362585858,rev?*%
%TF.SameCoordinates,Original*%
%TF.FileFunction,Soldermask,Bot*%
%TF.FilePolarity,Negative*%
%FSLAX46Y46*%
G04 Gerber Fmt 4.6, Leading zero omitted, Abs format (unit mm)*
G04 Created by KiCad (PCBNEW 8.0.1) date 2024-04-28 14:26:27*
%MOMM*%
%LPD*%
G01*
G04 APERTURE LIST*
%ADD10C,1.750000*%
%ADD11C,4.000000*%
%ADD12C,2.500000*%
%ADD13R,1.752600X1.752600*%
%ADD14C,1.752600*%
%ADD15R,1.600000X1.600000*%
%ADD16O,1.600000X1.600000*%
G04 APERTURE END LIST*
D10*
%TO.C,S7*%
X123190000Y-114300000D03*
D11*
X128270000Y-114300000D03*
D10*
X133350000Y-114300000D03*
D12*
X124460000Y-111760000D03*
X130810000Y-109220000D03*
%TD*%
D13*
%TO.C,U1*%
X191611250Y-70485000D03*
D14*
X191611250Y-73025000D03*
X191611250Y-75565000D03*
X191611250Y-78105000D03*
X191611250Y-80645000D03*
X191611250Y-83185000D03*
X191611250Y-85725000D03*
X191611250Y-88265000D03*
X191611250Y-90805000D03*
X191611250Y-93345000D03*
X191611250Y-95885000D03*
X191611250Y-98425000D03*
X206851250Y-98425000D03*
X206851250Y-95885000D03*
X206851250Y-93345000D03*
X206851250Y-90805000D03*
X206851250Y-88265000D03*
X206851250Y-85725000D03*
X206851250Y-83185000D03*
X206851250Y-80645000D03*
X206851250Y-78105000D03*
X206851250Y-75565000D03*
X206851250Y-73025000D03*
X206851250Y-70485000D03*
%TD*%
D10*
%TO.C,S5*%
X142240000Y-95250000D03*
D11*
X147320000Y-95250000D03*
D10*
X152400000Y-95250000D03*
D12*
X143510000Y-92710000D03*
X149860000Y-90170000D03*
%TD*%
D10*
%TO.C,S4*%
X123190000Y-95250000D03*
D11*
X128270000Y-95250000D03*
D10*
X133350000Y-95250000D03*
D12*
X124460000Y-92710000D03*
X130810000Y-90170000D03*
%TD*%
D10*
%TO.C,S1*%
X123190000Y-76200000D03*
D11*
X128270000Y-76200000D03*
D10*
X133350000Y-76200000D03*
D12*
X124460000Y-73660000D03*
X130810000Y-71120000D03*
%TD*%
D10*
%TO.C,S3*%
X161290000Y-76200000D03*
D11*
X166370000Y-76200000D03*
D10*
X171450000Y-76200000D03*
D12*
X162560000Y-73660000D03*
X168910000Y-71120000D03*
%TD*%
D10*
%TO.C,S6*%
X161290000Y-95250000D03*
D11*
X166370000Y-95250000D03*
D10*
X171450000Y-95250000D03*
D12*
X162560000Y-92710000D03*
X168910000Y-90170000D03*
%TD*%
D10*
%TO.C,S2*%
X142240000Y-76200000D03*
D11*
X147320000Y-76200000D03*
D10*
X152400000Y-76200000D03*
D12*
X143510000Y-73660000D03*
X149860000Y-71120000D03*
%TD*%
D10*
%TO.C,S8*%
X142240000Y-114300000D03*
D11*
X147320000Y-114300000D03*
D10*
X152400000Y-114300000D03*
D12*
X143510000Y-111760000D03*
X149860000Y-109220000D03*
%TD*%
D10*
%TO.C,S9*%
X161290000Y-114300000D03*
D11*
X166370000Y-114300000D03*
D10*
X171450000Y-114300000D03*
D12*
X162560000Y-111760000D03*
X168910000Y-109220000D03*
%TD*%
D15*
%TO.C,D8*%
X156845000Y-117157500D03*
D16*
X156845000Y-109537500D03*
%TD*%
D15*
%TO.C,D5*%
X156845000Y-98107500D03*
D16*
X156845000Y-90487500D03*
%TD*%
D15*
%TO.C,D4*%
X137795000Y-98107500D03*
D16*
X137795000Y-90487500D03*
%TD*%
D15*
%TO.C,D2*%
X156845000Y-79057500D03*
D16*
X156845000Y-71437500D03*
%TD*%
D15*
%TO.C,D6*%
X175895000Y-98107500D03*
D16*
X175895000Y-90487500D03*
%TD*%
D15*
%TO.C,D9*%
X175895000Y-117157500D03*
D16*
X175895000Y-109537500D03*
%TD*%
D15*
%TO.C,D7*%
X137795000Y-117157500D03*
D16*
X137795000Y-109537500D03*
%TD*%
D15*
%TO.C,D3*%
X175895000Y-79057500D03*
D16*
X175895000Y-71437500D03*
%TD*%
D15*
%TO.C,D1*%
X137795000Y-79057500D03*
D16*
X137795000Y-71437500D03*
%TD*%
M02*
