%TF.GenerationSoftware,KiCad,Pcbnew,8.0.1*%
%TF.CreationDate,2024-04-28T14:26:27+12:00*%
%TF.ProjectId,v1,76312e6b-6963-4616-945f-706362585858,rev?*%
%TF.SameCoordinates,Original*%
%TF.FileFunction,Legend,Bot*%
%TF.FilePolarity,Positive*%
%FSLAX46Y46*%
G04 Gerber Fmt 4.6, Leading zero omitted, Abs format (unit mm)*
G04 Created by KiCad (PCBNEW 8.0.1) date 2024-04-28 14:26:27*
%MOMM*%
%LPD*%
G01*
G04 APERTURE LIST*
%ADD10C,0.150000*%
%ADD11C,0.200000*%
%ADD12C,0.120000*%
%ADD13R,1.752600X1.752600*%
%ADD14C,1.752600*%
G04 APERTURE END LIST*
D10*
X205016059Y-95828247D02*
X204901773Y-95866342D01*
X204901773Y-95866342D02*
X204863678Y-95904438D01*
X204863678Y-95904438D02*
X204825582Y-95980628D01*
X204825582Y-95980628D02*
X204825582Y-96094914D01*
X204825582Y-96094914D02*
X204863678Y-96171104D01*
X204863678Y-96171104D02*
X204901773Y-96209200D01*
X204901773Y-96209200D02*
X204977963Y-96247295D01*
X204977963Y-96247295D02*
X205282725Y-96247295D01*
X205282725Y-96247295D02*
X205282725Y-95447295D01*
X205282725Y-95447295D02*
X205016059Y-95447295D01*
X205016059Y-95447295D02*
X204939868Y-95485390D01*
X204939868Y-95485390D02*
X204901773Y-95523485D01*
X204901773Y-95523485D02*
X204863678Y-95599676D01*
X204863678Y-95599676D02*
X204863678Y-95675866D01*
X204863678Y-95675866D02*
X204901773Y-95752057D01*
X204901773Y-95752057D02*
X204939868Y-95790152D01*
X204939868Y-95790152D02*
X205016059Y-95828247D01*
X205016059Y-95828247D02*
X205282725Y-95828247D01*
X204520821Y-95523485D02*
X204482725Y-95485390D01*
X204482725Y-95485390D02*
X204406535Y-95447295D01*
X204406535Y-95447295D02*
X204216059Y-95447295D01*
X204216059Y-95447295D02*
X204139868Y-95485390D01*
X204139868Y-95485390D02*
X204101773Y-95523485D01*
X204101773Y-95523485D02*
X204063678Y-95599676D01*
X204063678Y-95599676D02*
X204063678Y-95675866D01*
X204063678Y-95675866D02*
X204101773Y-95790152D01*
X204101773Y-95790152D02*
X204558916Y-96247295D01*
X204558916Y-96247295D02*
X204063678Y-96247295D01*
X205016059Y-98368247D02*
X204901773Y-98406342D01*
X204901773Y-98406342D02*
X204863678Y-98444438D01*
X204863678Y-98444438D02*
X204825582Y-98520628D01*
X204825582Y-98520628D02*
X204825582Y-98634914D01*
X204825582Y-98634914D02*
X204863678Y-98711104D01*
X204863678Y-98711104D02*
X204901773Y-98749200D01*
X204901773Y-98749200D02*
X204977963Y-98787295D01*
X204977963Y-98787295D02*
X205282725Y-98787295D01*
X205282725Y-98787295D02*
X205282725Y-97987295D01*
X205282725Y-97987295D02*
X205016059Y-97987295D01*
X205016059Y-97987295D02*
X204939868Y-98025390D01*
X204939868Y-98025390D02*
X204901773Y-98063485D01*
X204901773Y-98063485D02*
X204863678Y-98139676D01*
X204863678Y-98139676D02*
X204863678Y-98215866D01*
X204863678Y-98215866D02*
X204901773Y-98292057D01*
X204901773Y-98292057D02*
X204939868Y-98330152D01*
X204939868Y-98330152D02*
X205016059Y-98368247D01*
X205016059Y-98368247D02*
X205282725Y-98368247D01*
X204139868Y-97987295D02*
X204292249Y-97987295D01*
X204292249Y-97987295D02*
X204368440Y-98025390D01*
X204368440Y-98025390D02*
X204406535Y-98063485D01*
X204406535Y-98063485D02*
X204482725Y-98177771D01*
X204482725Y-98177771D02*
X204520821Y-98330152D01*
X204520821Y-98330152D02*
X204520821Y-98634914D01*
X204520821Y-98634914D02*
X204482725Y-98711104D01*
X204482725Y-98711104D02*
X204444630Y-98749200D01*
X204444630Y-98749200D02*
X204368440Y-98787295D01*
X204368440Y-98787295D02*
X204216059Y-98787295D01*
X204216059Y-98787295D02*
X204139868Y-98749200D01*
X204139868Y-98749200D02*
X204101773Y-98711104D01*
X204101773Y-98711104D02*
X204063678Y-98634914D01*
X204063678Y-98634914D02*
X204063678Y-98444438D01*
X204063678Y-98444438D02*
X204101773Y-98368247D01*
X204101773Y-98368247D02*
X204139868Y-98330152D01*
X204139868Y-98330152D02*
X204216059Y-98292057D01*
X204216059Y-98292057D02*
X204368440Y-98292057D01*
X204368440Y-98292057D02*
X204444630Y-98330152D01*
X204444630Y-98330152D02*
X204482725Y-98368247D01*
X204482725Y-98368247D02*
X204520821Y-98444438D01*
X205301773Y-72625390D02*
X205377963Y-72587295D01*
X205377963Y-72587295D02*
X205492249Y-72587295D01*
X205492249Y-72587295D02*
X205606535Y-72625390D01*
X205606535Y-72625390D02*
X205682725Y-72701580D01*
X205682725Y-72701580D02*
X205720820Y-72777771D01*
X205720820Y-72777771D02*
X205758916Y-72930152D01*
X205758916Y-72930152D02*
X205758916Y-73044438D01*
X205758916Y-73044438D02*
X205720820Y-73196819D01*
X205720820Y-73196819D02*
X205682725Y-73273009D01*
X205682725Y-73273009D02*
X205606535Y-73349200D01*
X205606535Y-73349200D02*
X205492249Y-73387295D01*
X205492249Y-73387295D02*
X205416058Y-73387295D01*
X205416058Y-73387295D02*
X205301773Y-73349200D01*
X205301773Y-73349200D02*
X205263677Y-73311104D01*
X205263677Y-73311104D02*
X205263677Y-73044438D01*
X205263677Y-73044438D02*
X205416058Y-73044438D01*
X204920820Y-73387295D02*
X204920820Y-72587295D01*
X204920820Y-72587295D02*
X204463677Y-73387295D01*
X204463677Y-73387295D02*
X204463677Y-72587295D01*
X204082725Y-73387295D02*
X204082725Y-72587295D01*
X204082725Y-72587295D02*
X203892249Y-72587295D01*
X203892249Y-72587295D02*
X203777963Y-72625390D01*
X203777963Y-72625390D02*
X203701773Y-72701580D01*
X203701773Y-72701580D02*
X203663678Y-72777771D01*
X203663678Y-72777771D02*
X203625582Y-72930152D01*
X203625582Y-72930152D02*
X203625582Y-73044438D01*
X203625582Y-73044438D02*
X203663678Y-73196819D01*
X203663678Y-73196819D02*
X203701773Y-73273009D01*
X203701773Y-73273009D02*
X203777963Y-73349200D01*
X203777963Y-73349200D02*
X203892249Y-73387295D01*
X203892249Y-73387295D02*
X204082725Y-73387295D01*
X204958916Y-88208247D02*
X205225582Y-88208247D01*
X205225582Y-88627295D02*
X205225582Y-87827295D01*
X205225582Y-87827295D02*
X204844630Y-87827295D01*
X204616059Y-87827295D02*
X204082725Y-87827295D01*
X204082725Y-87827295D02*
X204425583Y-88627295D01*
X205016059Y-90748247D02*
X204901773Y-90786342D01*
X204901773Y-90786342D02*
X204863678Y-90824438D01*
X204863678Y-90824438D02*
X204825582Y-90900628D01*
X204825582Y-90900628D02*
X204825582Y-91014914D01*
X204825582Y-91014914D02*
X204863678Y-91091104D01*
X204863678Y-91091104D02*
X204901773Y-91129200D01*
X204901773Y-91129200D02*
X204977963Y-91167295D01*
X204977963Y-91167295D02*
X205282725Y-91167295D01*
X205282725Y-91167295D02*
X205282725Y-90367295D01*
X205282725Y-90367295D02*
X205016059Y-90367295D01*
X205016059Y-90367295D02*
X204939868Y-90405390D01*
X204939868Y-90405390D02*
X204901773Y-90443485D01*
X204901773Y-90443485D02*
X204863678Y-90519676D01*
X204863678Y-90519676D02*
X204863678Y-90595866D01*
X204863678Y-90595866D02*
X204901773Y-90672057D01*
X204901773Y-90672057D02*
X204939868Y-90710152D01*
X204939868Y-90710152D02*
X205016059Y-90748247D01*
X205016059Y-90748247D02*
X205282725Y-90748247D01*
X204063678Y-91167295D02*
X204520821Y-91167295D01*
X204292249Y-91167295D02*
X204292249Y-90367295D01*
X204292249Y-90367295D02*
X204368440Y-90481580D01*
X204368440Y-90481580D02*
X204444630Y-90557771D01*
X204444630Y-90557771D02*
X204520821Y-90595866D01*
X194322630Y-93288247D02*
X194055964Y-93288247D01*
X193941678Y-93707295D02*
X194322630Y-93707295D01*
X194322630Y-93707295D02*
X194322630Y-92907295D01*
X194322630Y-92907295D02*
X193941678Y-92907295D01*
X193255963Y-92907295D02*
X193408344Y-92907295D01*
X193408344Y-92907295D02*
X193484535Y-92945390D01*
X193484535Y-92945390D02*
X193522630Y-92983485D01*
X193522630Y-92983485D02*
X193598820Y-93097771D01*
X193598820Y-93097771D02*
X193636916Y-93250152D01*
X193636916Y-93250152D02*
X193636916Y-93554914D01*
X193636916Y-93554914D02*
X193598820Y-93631104D01*
X193598820Y-93631104D02*
X193560725Y-93669200D01*
X193560725Y-93669200D02*
X193484535Y-93707295D01*
X193484535Y-93707295D02*
X193332154Y-93707295D01*
X193332154Y-93707295D02*
X193255963Y-93669200D01*
X193255963Y-93669200D02*
X193217868Y-93631104D01*
X193217868Y-93631104D02*
X193179773Y-93554914D01*
X193179773Y-93554914D02*
X193179773Y-93364438D01*
X193179773Y-93364438D02*
X193217868Y-93288247D01*
X193217868Y-93288247D02*
X193255963Y-93250152D01*
X193255963Y-93250152D02*
X193332154Y-93212057D01*
X193332154Y-93212057D02*
X193484535Y-93212057D01*
X193484535Y-93212057D02*
X193560725Y-93250152D01*
X193560725Y-93250152D02*
X193598820Y-93288247D01*
X193598820Y-93288247D02*
X193636916Y-93364438D01*
X205758916Y-77667295D02*
X205492249Y-78467295D01*
X205492249Y-78467295D02*
X205225583Y-77667295D01*
X204501773Y-78391104D02*
X204539869Y-78429200D01*
X204539869Y-78429200D02*
X204654154Y-78467295D01*
X204654154Y-78467295D02*
X204730345Y-78467295D01*
X204730345Y-78467295D02*
X204844631Y-78429200D01*
X204844631Y-78429200D02*
X204920821Y-78353009D01*
X204920821Y-78353009D02*
X204958916Y-78276819D01*
X204958916Y-78276819D02*
X204997012Y-78124438D01*
X204997012Y-78124438D02*
X204997012Y-78010152D01*
X204997012Y-78010152D02*
X204958916Y-77857771D01*
X204958916Y-77857771D02*
X204920821Y-77781580D01*
X204920821Y-77781580D02*
X204844631Y-77705390D01*
X204844631Y-77705390D02*
X204730345Y-77667295D01*
X204730345Y-77667295D02*
X204654154Y-77667295D01*
X204654154Y-77667295D02*
X204539869Y-77705390D01*
X204539869Y-77705390D02*
X204501773Y-77743485D01*
X203701773Y-78391104D02*
X203739869Y-78429200D01*
X203739869Y-78429200D02*
X203854154Y-78467295D01*
X203854154Y-78467295D02*
X203930345Y-78467295D01*
X203930345Y-78467295D02*
X204044631Y-78429200D01*
X204044631Y-78429200D02*
X204120821Y-78353009D01*
X204120821Y-78353009D02*
X204158916Y-78276819D01*
X204158916Y-78276819D02*
X204197012Y-78124438D01*
X204197012Y-78124438D02*
X204197012Y-78010152D01*
X204197012Y-78010152D02*
X204158916Y-77857771D01*
X204158916Y-77857771D02*
X204120821Y-77781580D01*
X204120821Y-77781580D02*
X204044631Y-77705390D01*
X204044631Y-77705390D02*
X203930345Y-77667295D01*
X203930345Y-77667295D02*
X203854154Y-77667295D01*
X203854154Y-77667295D02*
X203739869Y-77705390D01*
X203739869Y-77705390D02*
X203701773Y-77743485D01*
X193903582Y-88551104D02*
X193941678Y-88589200D01*
X193941678Y-88589200D02*
X194055963Y-88627295D01*
X194055963Y-88627295D02*
X194132154Y-88627295D01*
X194132154Y-88627295D02*
X194246440Y-88589200D01*
X194246440Y-88589200D02*
X194322630Y-88513009D01*
X194322630Y-88513009D02*
X194360725Y-88436819D01*
X194360725Y-88436819D02*
X194398821Y-88284438D01*
X194398821Y-88284438D02*
X194398821Y-88170152D01*
X194398821Y-88170152D02*
X194360725Y-88017771D01*
X194360725Y-88017771D02*
X194322630Y-87941580D01*
X194322630Y-87941580D02*
X194246440Y-87865390D01*
X194246440Y-87865390D02*
X194132154Y-87827295D01*
X194132154Y-87827295D02*
X194055963Y-87827295D01*
X194055963Y-87827295D02*
X193941678Y-87865390D01*
X193941678Y-87865390D02*
X193903582Y-87903485D01*
X193217868Y-87827295D02*
X193370249Y-87827295D01*
X193370249Y-87827295D02*
X193446440Y-87865390D01*
X193446440Y-87865390D02*
X193484535Y-87903485D01*
X193484535Y-87903485D02*
X193560725Y-88017771D01*
X193560725Y-88017771D02*
X193598821Y-88170152D01*
X193598821Y-88170152D02*
X193598821Y-88474914D01*
X193598821Y-88474914D02*
X193560725Y-88551104D01*
X193560725Y-88551104D02*
X193522630Y-88589200D01*
X193522630Y-88589200D02*
X193446440Y-88627295D01*
X193446440Y-88627295D02*
X193294059Y-88627295D01*
X193294059Y-88627295D02*
X193217868Y-88589200D01*
X193217868Y-88589200D02*
X193179773Y-88551104D01*
X193179773Y-88551104D02*
X193141678Y-88474914D01*
X193141678Y-88474914D02*
X193141678Y-88284438D01*
X193141678Y-88284438D02*
X193179773Y-88208247D01*
X193179773Y-88208247D02*
X193217868Y-88170152D01*
X193217868Y-88170152D02*
X193294059Y-88132057D01*
X193294059Y-88132057D02*
X193446440Y-88132057D01*
X193446440Y-88132057D02*
X193522630Y-88170152D01*
X193522630Y-88170152D02*
X193560725Y-88208247D01*
X193560725Y-88208247D02*
X193598821Y-88284438D01*
X194094059Y-98368247D02*
X193979773Y-98406342D01*
X193979773Y-98406342D02*
X193941678Y-98444438D01*
X193941678Y-98444438D02*
X193903582Y-98520628D01*
X193903582Y-98520628D02*
X193903582Y-98634914D01*
X193903582Y-98634914D02*
X193941678Y-98711104D01*
X193941678Y-98711104D02*
X193979773Y-98749200D01*
X193979773Y-98749200D02*
X194055963Y-98787295D01*
X194055963Y-98787295D02*
X194360725Y-98787295D01*
X194360725Y-98787295D02*
X194360725Y-97987295D01*
X194360725Y-97987295D02*
X194094059Y-97987295D01*
X194094059Y-97987295D02*
X194017868Y-98025390D01*
X194017868Y-98025390D02*
X193979773Y-98063485D01*
X193979773Y-98063485D02*
X193941678Y-98139676D01*
X193941678Y-98139676D02*
X193941678Y-98215866D01*
X193941678Y-98215866D02*
X193979773Y-98292057D01*
X193979773Y-98292057D02*
X194017868Y-98330152D01*
X194017868Y-98330152D02*
X194094059Y-98368247D01*
X194094059Y-98368247D02*
X194360725Y-98368247D01*
X193179773Y-97987295D02*
X193560725Y-97987295D01*
X193560725Y-97987295D02*
X193598821Y-98368247D01*
X193598821Y-98368247D02*
X193560725Y-98330152D01*
X193560725Y-98330152D02*
X193484535Y-98292057D01*
X193484535Y-98292057D02*
X193294059Y-98292057D01*
X193294059Y-98292057D02*
X193217868Y-98330152D01*
X193217868Y-98330152D02*
X193179773Y-98368247D01*
X193179773Y-98368247D02*
X193141678Y-98444438D01*
X193141678Y-98444438D02*
X193141678Y-98634914D01*
X193141678Y-98634914D02*
X193179773Y-98711104D01*
X193179773Y-98711104D02*
X193217868Y-98749200D01*
X193217868Y-98749200D02*
X193294059Y-98787295D01*
X193294059Y-98787295D02*
X193484535Y-98787295D01*
X193484535Y-98787295D02*
X193560725Y-98749200D01*
X193560725Y-98749200D02*
X193598821Y-98711104D01*
X204958916Y-83128247D02*
X205225582Y-83128247D01*
X205225582Y-83547295D02*
X205225582Y-82747295D01*
X205225582Y-82747295D02*
X204844630Y-82747295D01*
X204158916Y-82747295D02*
X204539868Y-82747295D01*
X204539868Y-82747295D02*
X204577964Y-83128247D01*
X204577964Y-83128247D02*
X204539868Y-83090152D01*
X204539868Y-83090152D02*
X204463678Y-83052057D01*
X204463678Y-83052057D02*
X204273202Y-83052057D01*
X204273202Y-83052057D02*
X204197011Y-83090152D01*
X204197011Y-83090152D02*
X204158916Y-83128247D01*
X204158916Y-83128247D02*
X204120821Y-83204438D01*
X204120821Y-83204438D02*
X204120821Y-83394914D01*
X204120821Y-83394914D02*
X204158916Y-83471104D01*
X204158916Y-83471104D02*
X204197011Y-83509200D01*
X204197011Y-83509200D02*
X204273202Y-83547295D01*
X204273202Y-83547295D02*
X204463678Y-83547295D01*
X204463678Y-83547295D02*
X204539868Y-83509200D01*
X204539868Y-83509200D02*
X204577964Y-83471104D01*
X194379773Y-75165390D02*
X194455963Y-75127295D01*
X194455963Y-75127295D02*
X194570249Y-75127295D01*
X194570249Y-75127295D02*
X194684535Y-75165390D01*
X194684535Y-75165390D02*
X194760725Y-75241580D01*
X194760725Y-75241580D02*
X194798820Y-75317771D01*
X194798820Y-75317771D02*
X194836916Y-75470152D01*
X194836916Y-75470152D02*
X194836916Y-75584438D01*
X194836916Y-75584438D02*
X194798820Y-75736819D01*
X194798820Y-75736819D02*
X194760725Y-75813009D01*
X194760725Y-75813009D02*
X194684535Y-75889200D01*
X194684535Y-75889200D02*
X194570249Y-75927295D01*
X194570249Y-75927295D02*
X194494058Y-75927295D01*
X194494058Y-75927295D02*
X194379773Y-75889200D01*
X194379773Y-75889200D02*
X194341677Y-75851104D01*
X194341677Y-75851104D02*
X194341677Y-75584438D01*
X194341677Y-75584438D02*
X194494058Y-75584438D01*
X193998820Y-75927295D02*
X193998820Y-75127295D01*
X193998820Y-75127295D02*
X193541677Y-75927295D01*
X193541677Y-75927295D02*
X193541677Y-75127295D01*
X193160725Y-75927295D02*
X193160725Y-75127295D01*
X193160725Y-75127295D02*
X192970249Y-75127295D01*
X192970249Y-75127295D02*
X192855963Y-75165390D01*
X192855963Y-75165390D02*
X192779773Y-75241580D01*
X192779773Y-75241580D02*
X192741678Y-75317771D01*
X192741678Y-75317771D02*
X192703582Y-75470152D01*
X192703582Y-75470152D02*
X192703582Y-75584438D01*
X192703582Y-75584438D02*
X192741678Y-75736819D01*
X192741678Y-75736819D02*
X192779773Y-75813009D01*
X192779773Y-75813009D02*
X192855963Y-75889200D01*
X192855963Y-75889200D02*
X192970249Y-75927295D01*
X192970249Y-75927295D02*
X193160725Y-75927295D01*
X194360725Y-83547295D02*
X194360725Y-82747295D01*
X194360725Y-82747295D02*
X194170249Y-82747295D01*
X194170249Y-82747295D02*
X194055963Y-82785390D01*
X194055963Y-82785390D02*
X193979773Y-82861580D01*
X193979773Y-82861580D02*
X193941678Y-82937771D01*
X193941678Y-82937771D02*
X193903582Y-83090152D01*
X193903582Y-83090152D02*
X193903582Y-83204438D01*
X193903582Y-83204438D02*
X193941678Y-83356819D01*
X193941678Y-83356819D02*
X193979773Y-83433009D01*
X193979773Y-83433009D02*
X194055963Y-83509200D01*
X194055963Y-83509200D02*
X194170249Y-83547295D01*
X194170249Y-83547295D02*
X194360725Y-83547295D01*
X193408344Y-82747295D02*
X193332154Y-82747295D01*
X193332154Y-82747295D02*
X193255963Y-82785390D01*
X193255963Y-82785390D02*
X193217868Y-82823485D01*
X193217868Y-82823485D02*
X193179773Y-82899676D01*
X193179773Y-82899676D02*
X193141678Y-83052057D01*
X193141678Y-83052057D02*
X193141678Y-83242533D01*
X193141678Y-83242533D02*
X193179773Y-83394914D01*
X193179773Y-83394914D02*
X193217868Y-83471104D01*
X193217868Y-83471104D02*
X193255963Y-83509200D01*
X193255963Y-83509200D02*
X193332154Y-83547295D01*
X193332154Y-83547295D02*
X193408344Y-83547295D01*
X193408344Y-83547295D02*
X193484535Y-83509200D01*
X193484535Y-83509200D02*
X193522630Y-83471104D01*
X193522630Y-83471104D02*
X193560725Y-83394914D01*
X193560725Y-83394914D02*
X193598821Y-83242533D01*
X193598821Y-83242533D02*
X193598821Y-83052057D01*
X193598821Y-83052057D02*
X193560725Y-82899676D01*
X193560725Y-82899676D02*
X193522630Y-82823485D01*
X193522630Y-82823485D02*
X193484535Y-82785390D01*
X193484535Y-82785390D02*
X193408344Y-82747295D01*
X204958916Y-85668247D02*
X205225582Y-85668247D01*
X205225582Y-86087295D02*
X205225582Y-85287295D01*
X205225582Y-85287295D02*
X204844630Y-85287295D01*
X204197011Y-85287295D02*
X204349392Y-85287295D01*
X204349392Y-85287295D02*
X204425583Y-85325390D01*
X204425583Y-85325390D02*
X204463678Y-85363485D01*
X204463678Y-85363485D02*
X204539868Y-85477771D01*
X204539868Y-85477771D02*
X204577964Y-85630152D01*
X204577964Y-85630152D02*
X204577964Y-85934914D01*
X204577964Y-85934914D02*
X204539868Y-86011104D01*
X204539868Y-86011104D02*
X204501773Y-86049200D01*
X204501773Y-86049200D02*
X204425583Y-86087295D01*
X204425583Y-86087295D02*
X204273202Y-86087295D01*
X204273202Y-86087295D02*
X204197011Y-86049200D01*
X204197011Y-86049200D02*
X204158916Y-86011104D01*
X204158916Y-86011104D02*
X204120821Y-85934914D01*
X204120821Y-85934914D02*
X204120821Y-85744438D01*
X204120821Y-85744438D02*
X204158916Y-85668247D01*
X204158916Y-85668247D02*
X204197011Y-85630152D01*
X204197011Y-85630152D02*
X204273202Y-85592057D01*
X204273202Y-85592057D02*
X204425583Y-85592057D01*
X204425583Y-85592057D02*
X204501773Y-85630152D01*
X204501773Y-85630152D02*
X204539868Y-85668247D01*
X204539868Y-85668247D02*
X204577964Y-85744438D01*
X204958916Y-80588247D02*
X205225582Y-80588247D01*
X205225582Y-81007295D02*
X205225582Y-80207295D01*
X205225582Y-80207295D02*
X204844630Y-80207295D01*
X204197011Y-80473961D02*
X204197011Y-81007295D01*
X204387487Y-80169200D02*
X204577964Y-80740628D01*
X204577964Y-80740628D02*
X204082725Y-80740628D01*
X194360725Y-73387295D02*
X194360725Y-72587295D01*
X194360725Y-72587295D02*
X194170249Y-72587295D01*
X194170249Y-72587295D02*
X194055963Y-72625390D01*
X194055963Y-72625390D02*
X193979773Y-72701580D01*
X193979773Y-72701580D02*
X193941678Y-72777771D01*
X193941678Y-72777771D02*
X193903582Y-72930152D01*
X193903582Y-72930152D02*
X193903582Y-73044438D01*
X193903582Y-73044438D02*
X193941678Y-73196819D01*
X193941678Y-73196819D02*
X193979773Y-73273009D01*
X193979773Y-73273009D02*
X194055963Y-73349200D01*
X194055963Y-73349200D02*
X194170249Y-73387295D01*
X194170249Y-73387295D02*
X194360725Y-73387295D01*
X193598821Y-72663485D02*
X193560725Y-72625390D01*
X193560725Y-72625390D02*
X193484535Y-72587295D01*
X193484535Y-72587295D02*
X193294059Y-72587295D01*
X193294059Y-72587295D02*
X193217868Y-72625390D01*
X193217868Y-72625390D02*
X193179773Y-72663485D01*
X193179773Y-72663485D02*
X193141678Y-72739676D01*
X193141678Y-72739676D02*
X193141678Y-72815866D01*
X193141678Y-72815866D02*
X193179773Y-72930152D01*
X193179773Y-72930152D02*
X193636916Y-73387295D01*
X193636916Y-73387295D02*
X193141678Y-73387295D01*
X194094059Y-95828247D02*
X193979773Y-95866342D01*
X193979773Y-95866342D02*
X193941678Y-95904438D01*
X193941678Y-95904438D02*
X193903582Y-95980628D01*
X193903582Y-95980628D02*
X193903582Y-96094914D01*
X193903582Y-96094914D02*
X193941678Y-96171104D01*
X193941678Y-96171104D02*
X193979773Y-96209200D01*
X193979773Y-96209200D02*
X194055963Y-96247295D01*
X194055963Y-96247295D02*
X194360725Y-96247295D01*
X194360725Y-96247295D02*
X194360725Y-95447295D01*
X194360725Y-95447295D02*
X194094059Y-95447295D01*
X194094059Y-95447295D02*
X194017868Y-95485390D01*
X194017868Y-95485390D02*
X193979773Y-95523485D01*
X193979773Y-95523485D02*
X193941678Y-95599676D01*
X193941678Y-95599676D02*
X193941678Y-95675866D01*
X193941678Y-95675866D02*
X193979773Y-95752057D01*
X193979773Y-95752057D02*
X194017868Y-95790152D01*
X194017868Y-95790152D02*
X194094059Y-95828247D01*
X194094059Y-95828247D02*
X194360725Y-95828247D01*
X193217868Y-95713961D02*
X193217868Y-96247295D01*
X193408344Y-95409200D02*
X193598821Y-95980628D01*
X193598821Y-95980628D02*
X193103582Y-95980628D01*
X194360725Y-86087295D02*
X194360725Y-85287295D01*
X194360725Y-85287295D02*
X194170249Y-85287295D01*
X194170249Y-85287295D02*
X194055963Y-85325390D01*
X194055963Y-85325390D02*
X193979773Y-85401580D01*
X193979773Y-85401580D02*
X193941678Y-85477771D01*
X193941678Y-85477771D02*
X193903582Y-85630152D01*
X193903582Y-85630152D02*
X193903582Y-85744438D01*
X193903582Y-85744438D02*
X193941678Y-85896819D01*
X193941678Y-85896819D02*
X193979773Y-85973009D01*
X193979773Y-85973009D02*
X194055963Y-86049200D01*
X194055963Y-86049200D02*
X194170249Y-86087295D01*
X194170249Y-86087295D02*
X194360725Y-86087295D01*
X193217868Y-85553961D02*
X193217868Y-86087295D01*
X193408344Y-85249200D02*
X193598821Y-85820628D01*
X193598821Y-85820628D02*
X193103582Y-85820628D01*
X204804583Y-75869200D02*
X204690297Y-75907295D01*
X204690297Y-75907295D02*
X204499821Y-75907295D01*
X204499821Y-75907295D02*
X204423630Y-75869200D01*
X204423630Y-75869200D02*
X204385535Y-75831104D01*
X204385535Y-75831104D02*
X204347440Y-75754914D01*
X204347440Y-75754914D02*
X204347440Y-75678723D01*
X204347440Y-75678723D02*
X204385535Y-75602533D01*
X204385535Y-75602533D02*
X204423630Y-75564438D01*
X204423630Y-75564438D02*
X204499821Y-75526342D01*
X204499821Y-75526342D02*
X204652202Y-75488247D01*
X204652202Y-75488247D02*
X204728392Y-75450152D01*
X204728392Y-75450152D02*
X204766487Y-75412057D01*
X204766487Y-75412057D02*
X204804583Y-75335866D01*
X204804583Y-75335866D02*
X204804583Y-75259676D01*
X204804583Y-75259676D02*
X204766487Y-75183485D01*
X204766487Y-75183485D02*
X204728392Y-75145390D01*
X204728392Y-75145390D02*
X204652202Y-75107295D01*
X204652202Y-75107295D02*
X204461725Y-75107295D01*
X204461725Y-75107295D02*
X204347440Y-75145390D01*
X204118868Y-75107295D02*
X203661725Y-75107295D01*
X203890297Y-75907295D02*
X203890297Y-75107295D01*
X205244630Y-70847295D02*
X205511297Y-70466342D01*
X205701773Y-70847295D02*
X205701773Y-70047295D01*
X205701773Y-70047295D02*
X205397011Y-70047295D01*
X205397011Y-70047295D02*
X205320821Y-70085390D01*
X205320821Y-70085390D02*
X205282726Y-70123485D01*
X205282726Y-70123485D02*
X205244630Y-70199676D01*
X205244630Y-70199676D02*
X205244630Y-70313961D01*
X205244630Y-70313961D02*
X205282726Y-70390152D01*
X205282726Y-70390152D02*
X205320821Y-70428247D01*
X205320821Y-70428247D02*
X205397011Y-70466342D01*
X205397011Y-70466342D02*
X205701773Y-70466342D01*
X204939869Y-70618723D02*
X204558916Y-70618723D01*
X205016059Y-70847295D02*
X204749392Y-70047295D01*
X204749392Y-70047295D02*
X204482726Y-70847295D01*
X204292250Y-70047295D02*
X204101774Y-70847295D01*
X204101774Y-70847295D02*
X203949393Y-70275866D01*
X203949393Y-70275866D02*
X203797012Y-70847295D01*
X203797012Y-70847295D02*
X203606536Y-70047295D01*
X197849854Y-70047295D02*
X197392711Y-70047295D01*
X197621283Y-70847295D02*
X197621283Y-70047295D01*
X197202235Y-70047295D02*
X196668901Y-70847295D01*
X196668901Y-70047295D02*
X197202235Y-70847295D01*
X196211758Y-70047295D02*
X196135568Y-70047295D01*
X196135568Y-70047295D02*
X196059377Y-70085390D01*
X196059377Y-70085390D02*
X196021282Y-70123485D01*
X196021282Y-70123485D02*
X195983187Y-70199676D01*
X195983187Y-70199676D02*
X195945092Y-70352057D01*
X195945092Y-70352057D02*
X195945092Y-70542533D01*
X195945092Y-70542533D02*
X195983187Y-70694914D01*
X195983187Y-70694914D02*
X196021282Y-70771104D01*
X196021282Y-70771104D02*
X196059377Y-70809200D01*
X196059377Y-70809200D02*
X196135568Y-70847295D01*
X196135568Y-70847295D02*
X196211758Y-70847295D01*
X196211758Y-70847295D02*
X196287949Y-70809200D01*
X196287949Y-70809200D02*
X196326044Y-70771104D01*
X196326044Y-70771104D02*
X196364139Y-70694914D01*
X196364139Y-70694914D02*
X196402235Y-70542533D01*
X196402235Y-70542533D02*
X196402235Y-70352057D01*
X196402235Y-70352057D02*
X196364139Y-70199676D01*
X196364139Y-70199676D02*
X196326044Y-70123485D01*
X196326044Y-70123485D02*
X196287949Y-70085390D01*
X196287949Y-70085390D02*
X196211758Y-70047295D01*
X195030806Y-70009200D02*
X195716520Y-71037771D01*
X194764139Y-70847295D02*
X194764139Y-70047295D01*
X194764139Y-70047295D02*
X194573663Y-70047295D01*
X194573663Y-70047295D02*
X194459377Y-70085390D01*
X194459377Y-70085390D02*
X194383187Y-70161580D01*
X194383187Y-70161580D02*
X194345092Y-70237771D01*
X194345092Y-70237771D02*
X194306996Y-70390152D01*
X194306996Y-70390152D02*
X194306996Y-70504438D01*
X194306996Y-70504438D02*
X194345092Y-70656819D01*
X194345092Y-70656819D02*
X194383187Y-70733009D01*
X194383187Y-70733009D02*
X194459377Y-70809200D01*
X194459377Y-70809200D02*
X194573663Y-70847295D01*
X194573663Y-70847295D02*
X194764139Y-70847295D01*
X194040330Y-70047295D02*
X193545092Y-70047295D01*
X193545092Y-70047295D02*
X193811758Y-70352057D01*
X193811758Y-70352057D02*
X193697473Y-70352057D01*
X193697473Y-70352057D02*
X193621282Y-70390152D01*
X193621282Y-70390152D02*
X193583187Y-70428247D01*
X193583187Y-70428247D02*
X193545092Y-70504438D01*
X193545092Y-70504438D02*
X193545092Y-70694914D01*
X193545092Y-70694914D02*
X193583187Y-70771104D01*
X193583187Y-70771104D02*
X193621282Y-70809200D01*
X193621282Y-70809200D02*
X193697473Y-70847295D01*
X193697473Y-70847295D02*
X193926044Y-70847295D01*
X193926044Y-70847295D02*
X194002235Y-70809200D01*
X194002235Y-70809200D02*
X194040330Y-70771104D01*
X205016059Y-93288247D02*
X204901773Y-93326342D01*
X204901773Y-93326342D02*
X204863678Y-93364438D01*
X204863678Y-93364438D02*
X204825582Y-93440628D01*
X204825582Y-93440628D02*
X204825582Y-93554914D01*
X204825582Y-93554914D02*
X204863678Y-93631104D01*
X204863678Y-93631104D02*
X204901773Y-93669200D01*
X204901773Y-93669200D02*
X204977963Y-93707295D01*
X204977963Y-93707295D02*
X205282725Y-93707295D01*
X205282725Y-93707295D02*
X205282725Y-92907295D01*
X205282725Y-92907295D02*
X205016059Y-92907295D01*
X205016059Y-92907295D02*
X204939868Y-92945390D01*
X204939868Y-92945390D02*
X204901773Y-92983485D01*
X204901773Y-92983485D02*
X204863678Y-93059676D01*
X204863678Y-93059676D02*
X204863678Y-93135866D01*
X204863678Y-93135866D02*
X204901773Y-93212057D01*
X204901773Y-93212057D02*
X204939868Y-93250152D01*
X204939868Y-93250152D02*
X205016059Y-93288247D01*
X205016059Y-93288247D02*
X205282725Y-93288247D01*
X204558916Y-92907295D02*
X204063678Y-92907295D01*
X204063678Y-92907295D02*
X204330344Y-93212057D01*
X204330344Y-93212057D02*
X204216059Y-93212057D01*
X204216059Y-93212057D02*
X204139868Y-93250152D01*
X204139868Y-93250152D02*
X204101773Y-93288247D01*
X204101773Y-93288247D02*
X204063678Y-93364438D01*
X204063678Y-93364438D02*
X204063678Y-93554914D01*
X204063678Y-93554914D02*
X204101773Y-93631104D01*
X204101773Y-93631104D02*
X204139868Y-93669200D01*
X204139868Y-93669200D02*
X204216059Y-93707295D01*
X204216059Y-93707295D02*
X204444630Y-93707295D01*
X204444630Y-93707295D02*
X204520821Y-93669200D01*
X204520821Y-93669200D02*
X204558916Y-93631104D01*
X194360725Y-81007295D02*
X194360725Y-80207295D01*
X194360725Y-80207295D02*
X194170249Y-80207295D01*
X194170249Y-80207295D02*
X194055963Y-80245390D01*
X194055963Y-80245390D02*
X193979773Y-80321580D01*
X193979773Y-80321580D02*
X193941678Y-80397771D01*
X193941678Y-80397771D02*
X193903582Y-80550152D01*
X193903582Y-80550152D02*
X193903582Y-80664438D01*
X193903582Y-80664438D02*
X193941678Y-80816819D01*
X193941678Y-80816819D02*
X193979773Y-80893009D01*
X193979773Y-80893009D02*
X194055963Y-80969200D01*
X194055963Y-80969200D02*
X194170249Y-81007295D01*
X194170249Y-81007295D02*
X194360725Y-81007295D01*
X193141678Y-81007295D02*
X193598821Y-81007295D01*
X193370249Y-81007295D02*
X193370249Y-80207295D01*
X193370249Y-80207295D02*
X193446440Y-80321580D01*
X193446440Y-80321580D02*
X193522630Y-80397771D01*
X193522630Y-80397771D02*
X193598821Y-80435866D01*
X159419819Y-112609405D02*
X158419819Y-112609405D01*
X158419819Y-112609405D02*
X158419819Y-112847500D01*
X158419819Y-112847500D02*
X158467438Y-112990357D01*
X158467438Y-112990357D02*
X158562676Y-113085595D01*
X158562676Y-113085595D02*
X158657914Y-113133214D01*
X158657914Y-113133214D02*
X158848390Y-113180833D01*
X158848390Y-113180833D02*
X158991247Y-113180833D01*
X158991247Y-113180833D02*
X159181723Y-113133214D01*
X159181723Y-113133214D02*
X159276961Y-113085595D01*
X159276961Y-113085595D02*
X159372200Y-112990357D01*
X159372200Y-112990357D02*
X159419819Y-112847500D01*
X159419819Y-112847500D02*
X159419819Y-112609405D01*
X158848390Y-113752262D02*
X158800771Y-113657024D01*
X158800771Y-113657024D02*
X158753152Y-113609405D01*
X158753152Y-113609405D02*
X158657914Y-113561786D01*
X158657914Y-113561786D02*
X158610295Y-113561786D01*
X158610295Y-113561786D02*
X158515057Y-113609405D01*
X158515057Y-113609405D02*
X158467438Y-113657024D01*
X158467438Y-113657024D02*
X158419819Y-113752262D01*
X158419819Y-113752262D02*
X158419819Y-113942738D01*
X158419819Y-113942738D02*
X158467438Y-114037976D01*
X158467438Y-114037976D02*
X158515057Y-114085595D01*
X158515057Y-114085595D02*
X158610295Y-114133214D01*
X158610295Y-114133214D02*
X158657914Y-114133214D01*
X158657914Y-114133214D02*
X158753152Y-114085595D01*
X158753152Y-114085595D02*
X158800771Y-114037976D01*
X158800771Y-114037976D02*
X158848390Y-113942738D01*
X158848390Y-113942738D02*
X158848390Y-113752262D01*
X158848390Y-113752262D02*
X158896009Y-113657024D01*
X158896009Y-113657024D02*
X158943628Y-113609405D01*
X158943628Y-113609405D02*
X159038866Y-113561786D01*
X159038866Y-113561786D02*
X159229342Y-113561786D01*
X159229342Y-113561786D02*
X159324580Y-113609405D01*
X159324580Y-113609405D02*
X159372200Y-113657024D01*
X159372200Y-113657024D02*
X159419819Y-113752262D01*
X159419819Y-113752262D02*
X159419819Y-113942738D01*
X159419819Y-113942738D02*
X159372200Y-114037976D01*
X159372200Y-114037976D02*
X159324580Y-114085595D01*
X159324580Y-114085595D02*
X159229342Y-114133214D01*
X159229342Y-114133214D02*
X159038866Y-114133214D01*
X159038866Y-114133214D02*
X158943628Y-114085595D01*
X158943628Y-114085595D02*
X158896009Y-114037976D01*
X158896009Y-114037976D02*
X158848390Y-113942738D01*
X159099819Y-116895595D02*
X158099819Y-116895595D01*
X159099819Y-117467023D02*
X158528390Y-117038452D01*
X158099819Y-117467023D02*
X158671247Y-116895595D01*
X159419819Y-93559405D02*
X158419819Y-93559405D01*
X158419819Y-93559405D02*
X158419819Y-93797500D01*
X158419819Y-93797500D02*
X158467438Y-93940357D01*
X158467438Y-93940357D02*
X158562676Y-94035595D01*
X158562676Y-94035595D02*
X158657914Y-94083214D01*
X158657914Y-94083214D02*
X158848390Y-94130833D01*
X158848390Y-94130833D02*
X158991247Y-94130833D01*
X158991247Y-94130833D02*
X159181723Y-94083214D01*
X159181723Y-94083214D02*
X159276961Y-94035595D01*
X159276961Y-94035595D02*
X159372200Y-93940357D01*
X159372200Y-93940357D02*
X159419819Y-93797500D01*
X159419819Y-93797500D02*
X159419819Y-93559405D01*
X158419819Y-95035595D02*
X158419819Y-94559405D01*
X158419819Y-94559405D02*
X158896009Y-94511786D01*
X158896009Y-94511786D02*
X158848390Y-94559405D01*
X158848390Y-94559405D02*
X158800771Y-94654643D01*
X158800771Y-94654643D02*
X158800771Y-94892738D01*
X158800771Y-94892738D02*
X158848390Y-94987976D01*
X158848390Y-94987976D02*
X158896009Y-95035595D01*
X158896009Y-95035595D02*
X158991247Y-95083214D01*
X158991247Y-95083214D02*
X159229342Y-95083214D01*
X159229342Y-95083214D02*
X159324580Y-95035595D01*
X159324580Y-95035595D02*
X159372200Y-94987976D01*
X159372200Y-94987976D02*
X159419819Y-94892738D01*
X159419819Y-94892738D02*
X159419819Y-94654643D01*
X159419819Y-94654643D02*
X159372200Y-94559405D01*
X159372200Y-94559405D02*
X159324580Y-94511786D01*
X159099819Y-97845595D02*
X158099819Y-97845595D01*
X159099819Y-98417023D02*
X158528390Y-97988452D01*
X158099819Y-98417023D02*
X158671247Y-97845595D01*
X140369819Y-93559405D02*
X139369819Y-93559405D01*
X139369819Y-93559405D02*
X139369819Y-93797500D01*
X139369819Y-93797500D02*
X139417438Y-93940357D01*
X139417438Y-93940357D02*
X139512676Y-94035595D01*
X139512676Y-94035595D02*
X139607914Y-94083214D01*
X139607914Y-94083214D02*
X139798390Y-94130833D01*
X139798390Y-94130833D02*
X139941247Y-94130833D01*
X139941247Y-94130833D02*
X140131723Y-94083214D01*
X140131723Y-94083214D02*
X140226961Y-94035595D01*
X140226961Y-94035595D02*
X140322200Y-93940357D01*
X140322200Y-93940357D02*
X140369819Y-93797500D01*
X140369819Y-93797500D02*
X140369819Y-93559405D01*
X139703152Y-94987976D02*
X140369819Y-94987976D01*
X139322200Y-94749881D02*
X140036485Y-94511786D01*
X140036485Y-94511786D02*
X140036485Y-95130833D01*
X140049819Y-97845595D02*
X139049819Y-97845595D01*
X140049819Y-98417023D02*
X139478390Y-97988452D01*
X139049819Y-98417023D02*
X139621247Y-97845595D01*
X159419819Y-74509405D02*
X158419819Y-74509405D01*
X158419819Y-74509405D02*
X158419819Y-74747500D01*
X158419819Y-74747500D02*
X158467438Y-74890357D01*
X158467438Y-74890357D02*
X158562676Y-74985595D01*
X158562676Y-74985595D02*
X158657914Y-75033214D01*
X158657914Y-75033214D02*
X158848390Y-75080833D01*
X158848390Y-75080833D02*
X158991247Y-75080833D01*
X158991247Y-75080833D02*
X159181723Y-75033214D01*
X159181723Y-75033214D02*
X159276961Y-74985595D01*
X159276961Y-74985595D02*
X159372200Y-74890357D01*
X159372200Y-74890357D02*
X159419819Y-74747500D01*
X159419819Y-74747500D02*
X159419819Y-74509405D01*
X158515057Y-75461786D02*
X158467438Y-75509405D01*
X158467438Y-75509405D02*
X158419819Y-75604643D01*
X158419819Y-75604643D02*
X158419819Y-75842738D01*
X158419819Y-75842738D02*
X158467438Y-75937976D01*
X158467438Y-75937976D02*
X158515057Y-75985595D01*
X158515057Y-75985595D02*
X158610295Y-76033214D01*
X158610295Y-76033214D02*
X158705533Y-76033214D01*
X158705533Y-76033214D02*
X158848390Y-75985595D01*
X158848390Y-75985595D02*
X159419819Y-75414167D01*
X159419819Y-75414167D02*
X159419819Y-76033214D01*
X159099819Y-78795595D02*
X158099819Y-78795595D01*
X159099819Y-79367023D02*
X158528390Y-78938452D01*
X158099819Y-79367023D02*
X158671247Y-78795595D01*
X178469819Y-93559405D02*
X177469819Y-93559405D01*
X177469819Y-93559405D02*
X177469819Y-93797500D01*
X177469819Y-93797500D02*
X177517438Y-93940357D01*
X177517438Y-93940357D02*
X177612676Y-94035595D01*
X177612676Y-94035595D02*
X177707914Y-94083214D01*
X177707914Y-94083214D02*
X177898390Y-94130833D01*
X177898390Y-94130833D02*
X178041247Y-94130833D01*
X178041247Y-94130833D02*
X178231723Y-94083214D01*
X178231723Y-94083214D02*
X178326961Y-94035595D01*
X178326961Y-94035595D02*
X178422200Y-93940357D01*
X178422200Y-93940357D02*
X178469819Y-93797500D01*
X178469819Y-93797500D02*
X178469819Y-93559405D01*
X177469819Y-94987976D02*
X177469819Y-94797500D01*
X177469819Y-94797500D02*
X177517438Y-94702262D01*
X177517438Y-94702262D02*
X177565057Y-94654643D01*
X177565057Y-94654643D02*
X177707914Y-94559405D01*
X177707914Y-94559405D02*
X177898390Y-94511786D01*
X177898390Y-94511786D02*
X178279342Y-94511786D01*
X178279342Y-94511786D02*
X178374580Y-94559405D01*
X178374580Y-94559405D02*
X178422200Y-94607024D01*
X178422200Y-94607024D02*
X178469819Y-94702262D01*
X178469819Y-94702262D02*
X178469819Y-94892738D01*
X178469819Y-94892738D02*
X178422200Y-94987976D01*
X178422200Y-94987976D02*
X178374580Y-95035595D01*
X178374580Y-95035595D02*
X178279342Y-95083214D01*
X178279342Y-95083214D02*
X178041247Y-95083214D01*
X178041247Y-95083214D02*
X177946009Y-95035595D01*
X177946009Y-95035595D02*
X177898390Y-94987976D01*
X177898390Y-94987976D02*
X177850771Y-94892738D01*
X177850771Y-94892738D02*
X177850771Y-94702262D01*
X177850771Y-94702262D02*
X177898390Y-94607024D01*
X177898390Y-94607024D02*
X177946009Y-94559405D01*
X177946009Y-94559405D02*
X178041247Y-94511786D01*
X178149819Y-97845595D02*
X177149819Y-97845595D01*
X178149819Y-98417023D02*
X177578390Y-97988452D01*
X177149819Y-98417023D02*
X177721247Y-97845595D01*
X178469819Y-112609405D02*
X177469819Y-112609405D01*
X177469819Y-112609405D02*
X177469819Y-112847500D01*
X177469819Y-112847500D02*
X177517438Y-112990357D01*
X177517438Y-112990357D02*
X177612676Y-113085595D01*
X177612676Y-113085595D02*
X177707914Y-113133214D01*
X177707914Y-113133214D02*
X177898390Y-113180833D01*
X177898390Y-113180833D02*
X178041247Y-113180833D01*
X178041247Y-113180833D02*
X178231723Y-113133214D01*
X178231723Y-113133214D02*
X178326961Y-113085595D01*
X178326961Y-113085595D02*
X178422200Y-112990357D01*
X178422200Y-112990357D02*
X178469819Y-112847500D01*
X178469819Y-112847500D02*
X178469819Y-112609405D01*
X178469819Y-113657024D02*
X178469819Y-113847500D01*
X178469819Y-113847500D02*
X178422200Y-113942738D01*
X178422200Y-113942738D02*
X178374580Y-113990357D01*
X178374580Y-113990357D02*
X178231723Y-114085595D01*
X178231723Y-114085595D02*
X178041247Y-114133214D01*
X178041247Y-114133214D02*
X177660295Y-114133214D01*
X177660295Y-114133214D02*
X177565057Y-114085595D01*
X177565057Y-114085595D02*
X177517438Y-114037976D01*
X177517438Y-114037976D02*
X177469819Y-113942738D01*
X177469819Y-113942738D02*
X177469819Y-113752262D01*
X177469819Y-113752262D02*
X177517438Y-113657024D01*
X177517438Y-113657024D02*
X177565057Y-113609405D01*
X177565057Y-113609405D02*
X177660295Y-113561786D01*
X177660295Y-113561786D02*
X177898390Y-113561786D01*
X177898390Y-113561786D02*
X177993628Y-113609405D01*
X177993628Y-113609405D02*
X178041247Y-113657024D01*
X178041247Y-113657024D02*
X178088866Y-113752262D01*
X178088866Y-113752262D02*
X178088866Y-113942738D01*
X178088866Y-113942738D02*
X178041247Y-114037976D01*
X178041247Y-114037976D02*
X177993628Y-114085595D01*
X177993628Y-114085595D02*
X177898390Y-114133214D01*
X178149819Y-116895595D02*
X177149819Y-116895595D01*
X178149819Y-117467023D02*
X177578390Y-117038452D01*
X177149819Y-117467023D02*
X177721247Y-116895595D01*
X140369819Y-112609405D02*
X139369819Y-112609405D01*
X139369819Y-112609405D02*
X139369819Y-112847500D01*
X139369819Y-112847500D02*
X139417438Y-112990357D01*
X139417438Y-112990357D02*
X139512676Y-113085595D01*
X139512676Y-113085595D02*
X139607914Y-113133214D01*
X139607914Y-113133214D02*
X139798390Y-113180833D01*
X139798390Y-113180833D02*
X139941247Y-113180833D01*
X139941247Y-113180833D02*
X140131723Y-113133214D01*
X140131723Y-113133214D02*
X140226961Y-113085595D01*
X140226961Y-113085595D02*
X140322200Y-112990357D01*
X140322200Y-112990357D02*
X140369819Y-112847500D01*
X140369819Y-112847500D02*
X140369819Y-112609405D01*
X139369819Y-113514167D02*
X139369819Y-114180833D01*
X139369819Y-114180833D02*
X140369819Y-113752262D01*
X140049819Y-116895595D02*
X139049819Y-116895595D01*
X140049819Y-117467023D02*
X139478390Y-117038452D01*
X139049819Y-117467023D02*
X139621247Y-116895595D01*
X178469819Y-74509405D02*
X177469819Y-74509405D01*
X177469819Y-74509405D02*
X177469819Y-74747500D01*
X177469819Y-74747500D02*
X177517438Y-74890357D01*
X177517438Y-74890357D02*
X177612676Y-74985595D01*
X177612676Y-74985595D02*
X177707914Y-75033214D01*
X177707914Y-75033214D02*
X177898390Y-75080833D01*
X177898390Y-75080833D02*
X178041247Y-75080833D01*
X178041247Y-75080833D02*
X178231723Y-75033214D01*
X178231723Y-75033214D02*
X178326961Y-74985595D01*
X178326961Y-74985595D02*
X178422200Y-74890357D01*
X178422200Y-74890357D02*
X178469819Y-74747500D01*
X178469819Y-74747500D02*
X178469819Y-74509405D01*
X177469819Y-75414167D02*
X177469819Y-76033214D01*
X177469819Y-76033214D02*
X177850771Y-75699881D01*
X177850771Y-75699881D02*
X177850771Y-75842738D01*
X177850771Y-75842738D02*
X177898390Y-75937976D01*
X177898390Y-75937976D02*
X177946009Y-75985595D01*
X177946009Y-75985595D02*
X178041247Y-76033214D01*
X178041247Y-76033214D02*
X178279342Y-76033214D01*
X178279342Y-76033214D02*
X178374580Y-75985595D01*
X178374580Y-75985595D02*
X178422200Y-75937976D01*
X178422200Y-75937976D02*
X178469819Y-75842738D01*
X178469819Y-75842738D02*
X178469819Y-75557024D01*
X178469819Y-75557024D02*
X178422200Y-75461786D01*
X178422200Y-75461786D02*
X178374580Y-75414167D01*
X178149819Y-78795595D02*
X177149819Y-78795595D01*
X178149819Y-79367023D02*
X177578390Y-78938452D01*
X177149819Y-79367023D02*
X177721247Y-78795595D01*
X140369819Y-74509405D02*
X139369819Y-74509405D01*
X139369819Y-74509405D02*
X139369819Y-74747500D01*
X139369819Y-74747500D02*
X139417438Y-74890357D01*
X139417438Y-74890357D02*
X139512676Y-74985595D01*
X139512676Y-74985595D02*
X139607914Y-75033214D01*
X139607914Y-75033214D02*
X139798390Y-75080833D01*
X139798390Y-75080833D02*
X139941247Y-75080833D01*
X139941247Y-75080833D02*
X140131723Y-75033214D01*
X140131723Y-75033214D02*
X140226961Y-74985595D01*
X140226961Y-74985595D02*
X140322200Y-74890357D01*
X140322200Y-74890357D02*
X140369819Y-74747500D01*
X140369819Y-74747500D02*
X140369819Y-74509405D01*
X140369819Y-76033214D02*
X140369819Y-75461786D01*
X140369819Y-75747500D02*
X139369819Y-75747500D01*
X139369819Y-75747500D02*
X139512676Y-75652262D01*
X139512676Y-75652262D02*
X139607914Y-75557024D01*
X139607914Y-75557024D02*
X139655533Y-75461786D01*
X140049819Y-78795595D02*
X139049819Y-78795595D01*
X140049819Y-79367023D02*
X139478390Y-78938452D01*
X139049819Y-79367023D02*
X139621247Y-78795595D01*
D11*
%TO.C,U1*%
X190341250Y-66675000D02*
X190341250Y-99695000D01*
X190341250Y-99695000D02*
X208121250Y-99695000D01*
X192881250Y-69215000D02*
X190341250Y-69215000D01*
X192881250Y-69215000D02*
X192881250Y-71755000D01*
X192881250Y-71755000D02*
X190341250Y-71755000D01*
X208121250Y-66675000D02*
X190341250Y-66675000D01*
X208121250Y-99695000D02*
X208121250Y-66675000D01*
D10*
X205575885Y-75204030D02*
X205075885Y-75204030D01*
X205075885Y-75104030D01*
X205575885Y-75104030D01*
X205575885Y-75204030D01*
G36*
X205575885Y-75204030D02*
G01*
X205075885Y-75204030D01*
X205075885Y-75104030D01*
X205575885Y-75104030D01*
X205575885Y-75204030D01*
G37*
X205175885Y-75404030D02*
X205075885Y-75404030D01*
X205075885Y-75104030D01*
X205175885Y-75104030D01*
X205175885Y-75404030D01*
G36*
X205175885Y-75404030D02*
G01*
X205075885Y-75404030D01*
X205075885Y-75104030D01*
X205175885Y-75104030D01*
X205175885Y-75404030D01*
G37*
X205175885Y-75904030D02*
X205075885Y-75904030D01*
X205075885Y-75704030D01*
X205175885Y-75704030D01*
X205175885Y-75904030D01*
G36*
X205175885Y-75904030D02*
G01*
X205075885Y-75904030D01*
X205075885Y-75704030D01*
X205175885Y-75704030D01*
X205175885Y-75904030D01*
G37*
X205375885Y-75604030D02*
X205275885Y-75604030D01*
X205275885Y-75504030D01*
X205375885Y-75504030D01*
X205375885Y-75604030D01*
G36*
X205375885Y-75604030D02*
G01*
X205275885Y-75604030D01*
X205275885Y-75504030D01*
X205375885Y-75504030D01*
X205375885Y-75604030D01*
G37*
X205575885Y-75904030D02*
X205475885Y-75904030D01*
X205475885Y-75104030D01*
X205575885Y-75104030D01*
X205575885Y-75904030D01*
G36*
X205575885Y-75904030D02*
G01*
X205475885Y-75904030D01*
X205475885Y-75104030D01*
X205575885Y-75104030D01*
X205575885Y-75904030D01*
G37*
D12*
%TO.C,D8*%
X155725000Y-111227500D02*
X155725000Y-115467500D01*
X155725000Y-114627500D02*
X157965000Y-114627500D01*
X155725000Y-114747500D02*
X157965000Y-114747500D01*
X155725000Y-114867500D02*
X157965000Y-114867500D01*
X155725000Y-115467500D02*
X157965000Y-115467500D01*
X156845000Y-111227500D02*
X156845000Y-110577500D01*
X156845000Y-115467500D02*
X156845000Y-116117500D01*
X157965000Y-111227500D02*
X155725000Y-111227500D01*
X157965000Y-115467500D02*
X157965000Y-111227500D01*
%TO.C,D5*%
X155725000Y-92177500D02*
X155725000Y-96417500D01*
X155725000Y-95577500D02*
X157965000Y-95577500D01*
X155725000Y-95697500D02*
X157965000Y-95697500D01*
X155725000Y-95817500D02*
X157965000Y-95817500D01*
X155725000Y-96417500D02*
X157965000Y-96417500D01*
X156845000Y-92177500D02*
X156845000Y-91527500D01*
X156845000Y-96417500D02*
X156845000Y-97067500D01*
X157965000Y-92177500D02*
X155725000Y-92177500D01*
X157965000Y-96417500D02*
X157965000Y-92177500D01*
%TO.C,D4*%
X136675000Y-92177500D02*
X136675000Y-96417500D01*
X136675000Y-95577500D02*
X138915000Y-95577500D01*
X136675000Y-95697500D02*
X138915000Y-95697500D01*
X136675000Y-95817500D02*
X138915000Y-95817500D01*
X136675000Y-96417500D02*
X138915000Y-96417500D01*
X137795000Y-92177500D02*
X137795000Y-91527500D01*
X137795000Y-96417500D02*
X137795000Y-97067500D01*
X138915000Y-92177500D02*
X136675000Y-92177500D01*
X138915000Y-96417500D02*
X138915000Y-92177500D01*
%TO.C,D2*%
X155725000Y-73127500D02*
X155725000Y-77367500D01*
X155725000Y-76527500D02*
X157965000Y-76527500D01*
X155725000Y-76647500D02*
X157965000Y-76647500D01*
X155725000Y-76767500D02*
X157965000Y-76767500D01*
X155725000Y-77367500D02*
X157965000Y-77367500D01*
X156845000Y-73127500D02*
X156845000Y-72477500D01*
X156845000Y-77367500D02*
X156845000Y-78017500D01*
X157965000Y-73127500D02*
X155725000Y-73127500D01*
X157965000Y-77367500D02*
X157965000Y-73127500D01*
%TO.C,D6*%
X174775000Y-92177500D02*
X174775000Y-96417500D01*
X174775000Y-95577500D02*
X177015000Y-95577500D01*
X174775000Y-95697500D02*
X177015000Y-95697500D01*
X174775000Y-95817500D02*
X177015000Y-95817500D01*
X174775000Y-96417500D02*
X177015000Y-96417500D01*
X175895000Y-92177500D02*
X175895000Y-91527500D01*
X175895000Y-96417500D02*
X175895000Y-97067500D01*
X177015000Y-92177500D02*
X174775000Y-92177500D01*
X177015000Y-96417500D02*
X177015000Y-92177500D01*
%TO.C,D9*%
X174775000Y-111227500D02*
X174775000Y-115467500D01*
X174775000Y-114627500D02*
X177015000Y-114627500D01*
X174775000Y-114747500D02*
X177015000Y-114747500D01*
X174775000Y-114867500D02*
X177015000Y-114867500D01*
X174775000Y-115467500D02*
X177015000Y-115467500D01*
X175895000Y-111227500D02*
X175895000Y-110577500D01*
X175895000Y-115467500D02*
X175895000Y-116117500D01*
X177015000Y-111227500D02*
X174775000Y-111227500D01*
X177015000Y-115467500D02*
X177015000Y-111227500D01*
%TO.C,D7*%
X136675000Y-111227500D02*
X136675000Y-115467500D01*
X136675000Y-114627500D02*
X138915000Y-114627500D01*
X136675000Y-114747500D02*
X138915000Y-114747500D01*
X136675000Y-114867500D02*
X138915000Y-114867500D01*
X136675000Y-115467500D02*
X138915000Y-115467500D01*
X137795000Y-111227500D02*
X137795000Y-110577500D01*
X137795000Y-115467500D02*
X137795000Y-116117500D01*
X138915000Y-111227500D02*
X136675000Y-111227500D01*
X138915000Y-115467500D02*
X138915000Y-111227500D01*
%TO.C,D3*%
X174775000Y-73127500D02*
X174775000Y-77367500D01*
X174775000Y-76527500D02*
X177015000Y-76527500D01*
X174775000Y-76647500D02*
X177015000Y-76647500D01*
X174775000Y-76767500D02*
X177015000Y-76767500D01*
X174775000Y-77367500D02*
X177015000Y-77367500D01*
X175895000Y-73127500D02*
X175895000Y-72477500D01*
X175895000Y-77367500D02*
X175895000Y-78017500D01*
X177015000Y-73127500D02*
X174775000Y-73127500D01*
X177015000Y-77367500D02*
X177015000Y-73127500D01*
%TO.C,D1*%
X136675000Y-73127500D02*
X136675000Y-77367500D01*
X136675000Y-76527500D02*
X138915000Y-76527500D01*
X136675000Y-76647500D02*
X138915000Y-76647500D01*
X136675000Y-76767500D02*
X138915000Y-76767500D01*
X136675000Y-77367500D02*
X138915000Y-77367500D01*
X137795000Y-73127500D02*
X137795000Y-72477500D01*
X137795000Y-77367500D02*
X137795000Y-78017500D01*
X138915000Y-73127500D02*
X136675000Y-73127500D01*
X138915000Y-77367500D02*
X138915000Y-73127500D01*
%TD*%
D13*
%TO.C,U1*%
X191611250Y-70485000D03*
D14*
X191611250Y-73025000D03*
X191611250Y-75565000D03*
X191611250Y-78105000D03*
X191611250Y-80645000D03*
X191611250Y-83185000D03*
X191611250Y-85725000D03*
X191611250Y-88265000D03*
X191611250Y-90805000D03*
X191611250Y-93345000D03*
X191611250Y-95885000D03*
X191611250Y-98425000D03*
X206851250Y-98425000D03*
X206851250Y-95885000D03*
X206851250Y-93345000D03*
X206851250Y-90805000D03*
X206851250Y-88265000D03*
X206851250Y-85725000D03*
X206851250Y-83185000D03*
X206851250Y-80645000D03*
X206851250Y-78105000D03*
X206851250Y-75565000D03*
X206851250Y-73025000D03*
X206851250Y-70485000D03*
%TD*%
M02*
