M48
; DRILL file {KiCad 8.0.1} date 2024-04-28T14:26:49+1200
; FORMAT={-:-/ absolute / metric / decimal}
; #@! TF.CreationDate,2024-04-28T14:26:49+12:00
; #@! TF.GenerationSoftware,Kicad,Pcbnew,8.0.1
; #@! TF.FileFunction,NonPlated,1,2,NPTH
FMAT,2
METRIC
; #@! TA.AperFunction,NonPlated,NPTH,ComponentDrill
T1C1.750
; #@! TA.AperFunction,NonPlated,NPTH,ComponentDrill
T2C4.000
%
G90
G05
T1
X123.19Y-76.2
X123.19Y-95.25
X123.19Y-114.3
X133.35Y-76.2
X133.35Y-95.25
X133.35Y-114.3
X142.24Y-76.2
X142.24Y-95.25
X142.24Y-114.3
X152.4Y-76.2
X152.4Y-95.25
X152.4Y-114.3
X161.29Y-76.2
X161.29Y-95.25
X161.29Y-114.3
X171.45Y-76.2
X171.45Y-95.25
X171.45Y-114.3
T2
X128.27Y-76.2
X128.27Y-95.25
X128.27Y-114.3
X147.32Y-76.2
X147.32Y-95.25
X147.32Y-114.3
X166.37Y-76.2
X166.37Y-95.25
X166.37Y-114.3
M30
