M48
; DRILL file {KiCad 8.0.1} date 2024-04-28T14:26:49+1200
; FORMAT={-:-/ absolute / metric / decimal}
; #@! TF.CreationDate,2024-04-28T14:26:49+12:00
; #@! TF.GenerationSoftware,Kicad,Pcbnew,8.0.1
; #@! TF.FileFunction,Plated,1,2,PTH
FMAT,2
METRIC
; #@! TA.AperFunction,Plated,PTH,ComponentDrill
T1C0.800
; #@! TA.AperFunction,Plated,PTH,ComponentDrill
T2C1.092
; #@! TA.AperFunction,Plated,PTH,ComponentDrill
T3C1.500
%
G90
G05
T1
X137.795Y-71.438
X137.795Y-79.057
X137.795Y-90.487
X137.795Y-98.108
X137.795Y-109.537
X137.795Y-117.157
X156.845Y-71.438
X156.845Y-79.057
X156.845Y-90.487
X156.845Y-98.108
X156.845Y-109.537
X156.845Y-117.157
X175.895Y-71.438
X175.895Y-79.057
X175.895Y-90.487
X175.895Y-98.108
X175.895Y-109.537
X175.895Y-117.157
T2
X191.611Y-70.485
X191.611Y-73.025
X191.611Y-75.565
X191.611Y-78.105
X191.611Y-80.645
X191.611Y-83.185
X191.611Y-85.725
X191.611Y-88.265
X191.611Y-90.805
X191.611Y-93.345
X191.611Y-95.885
X191.611Y-98.425
X206.851Y-70.485
X206.851Y-73.025
X206.851Y-75.565
X206.851Y-78.105
X206.851Y-80.645
X206.851Y-83.185
X206.851Y-85.725
X206.851Y-88.265
X206.851Y-90.805
X206.851Y-93.345
X206.851Y-95.885
X206.851Y-98.425
T3
X124.46Y-73.66
X124.46Y-92.71
X124.46Y-111.76
X130.81Y-71.12
X130.81Y-90.17
X130.81Y-109.22
X143.51Y-73.66
X143.51Y-92.71
X143.51Y-111.76
X149.86Y-71.12
X149.86Y-90.17
X149.86Y-109.22
X162.56Y-73.66
X162.56Y-92.71
X162.56Y-111.76
X168.91Y-71.12
X168.91Y-90.17
X168.91Y-109.22
M30
